{
    "asset" : {
        "generator" : "Khronos glTF Blender I/O v1.4.40",
        "version" : "2.0"
    },
    "extensionsUsed" : [
        "KHR_materials_clearcoat"
    ],
    "scene" : 0,
    "scenes" : [
        {
            "name" : "Scene",
            "nodes" : [
                0
            ]
        }
    ],
    "nodes" : [
        {
            "mesh" : 0,
            "name" : "Cube.004",
            "translation" : [
                -0.029792942106723785,
                0,
                0
            ]
        }
    ],
    "materials" : [
        {
            "doubleSided" : true,
            "emissiveFactor" : [
                0.00800000037997961,
                0.00800000037997961,
                0.00800000037997961
            ],
            "name" : "imagme",
            "pbrMetallicRoughness" : {
                "baseColorTexture" : {
                    "index" : 0,
                    "texCoord" : 0
                },
                "metallicFactor" : 0,
                "roughnessFactor" : 0.20454545319080353
            }
        },
        {
            "doubleSided" : true,
            "extensions" : {
                "KHR_materials_clearcoat" : {
                    "clearcoatFactor" : 0.10000000149011612,
                    "clearcoatRoughnessFactor" : 0.7572727203369141
                }
            },
            "name" : "cel",
            "pbrMetallicRoughness" : {
                "baseColorFactor" : [
                    0.007343321107327938,
                    0.007343321107327938,
                    0.007343321107327938,
                    1
                ],
                "metallicFactor" : 0
            }
        },
        {
            "doubleSided" : true,
            "name" : "cam",
            "pbrMetallicRoughness" : {
                "baseColorFactor" : [
                    0,
                    0,
                    0,
                    1
                ],
                "metallicFactor" : 0,
                "roughnessFactor" : 0
            }
        }
    ],
    "meshes" : [
        {
            "name" : "Cube.005",
            "primitives" : [
                {
                    "attributes" : {
                        "POSITION" : 0,
                        "NORMAL" : 1,
                        "TEXCOORD_0" : 2
                    },
                    "indices" : 3,
                    "material" : 0
                },
                {
                    "attributes" : {
                        "POSITION" : 4,
                        "NORMAL" : 5,
                        "TEXCOORD_0" : 6
                    },
                    "indices" : 7,
                    "material" : 1
                },
                {
                    "attributes" : {
                        "POSITION" : 8,
                        "NORMAL" : 9,
                        "TEXCOORD_0" : 10
                    },
                    "indices" : 11,
                    "material" : 2
                }
            ]
        }
    ],
    "textures" : [
        {
            "sampler" : 0,
            "source" : 0
        }
    ],
    "images" : [
        {
            "mimeType" : "image/png",
            "name" : "luciphone",
            "uri" : "luciphone.png"
        }
    ],
    "accessors" : [
        {
            "bufferView" : 0,
            "componentType" : 5126,
            "count" : 24,
            "max" : [
                0.09058398008346558,
                3.273336887359619,
                1.8218467235565186
            ],
            "min" : [
                0.09058398008346558,
                -3.410146474838257,
                -1.8218467235565186
            ],
            "type" : "VEC3"
        },
        {
            "bufferView" : 1,
            "componentType" : 5126,
            "count" : 24,
            "type" : "VEC3"
        },
        {
            "bufferView" : 2,
            "componentType" : 5126,
            "count" : 24,
            "type" : "VEC2"
        },
        {
            "bufferView" : 3,
            "componentType" : 5123,
            "count" : 66,
            "type" : "SCALAR"
        },
        {
            "bufferView" : 4,
            "componentType" : 5126,
            "count" : 660,
            "max" : [
                0.12037692219018936,
                3.5063552856445312,
                1.8899109363555908
            ],
            "min" : [
                -0.060791052877902985,
                -3.5063552856445312,
                -1.910475254058838
            ],
            "type" : "VEC3"
        },
        {
            "bufferView" : 5,
            "componentType" : 5126,
            "count" : 660,
            "type" : "VEC3"
        },
        {
            "bufferView" : 6,
            "componentType" : 5126,
            "count" : 660,
            "type" : "VEC2"
        },
        {
            "bufferView" : 7,
            "componentType" : 5123,
            "count" : 2118,
            "type" : "SCALAR"
        },
        {
            "bufferView" : 8,
            "componentType" : 5126,
            "count" : 431,
            "max" : [
                0.13642120361328125,
                3.3738014698028564,
                0.305136501789093
            ],
            "min" : [
                -0.09878212213516235,
                2.0024161338806152,
                -0.30513644218444824
            ],
            "type" : "VEC3"
        },
        {
            "bufferView" : 9,
            "componentType" : 5126,
            "count" : 431,
            "type" : "VEC3"
        },
        {
            "bufferView" : 10,
            "componentType" : 5126,
            "count" : 431,
            "type" : "VEC2"
        },
        {
            "bufferView" : 11,
            "componentType" : 5123,
            "count" : 1998,
            "type" : "SCALAR"
        }
    ],
    "bufferViews" : [
        {
            "buffer" : 0,
            "byteLength" : 288,
            "byteOffset" : 0
        },
        {
            "buffer" : 0,
            "byteLength" : 288,
            "byteOffset" : 288
        },
        {
            "buffer" : 0,
            "byteLength" : 192,
            "byteOffset" : 576
        },
        {
            "buffer" : 0,
            "byteLength" : 132,
            "byteOffset" : 768
        },
        {
            "buffer" : 0,
            "byteLength" : 7920,
            "byteOffset" : 900
        },
        {
            "buffer" : 0,
            "byteLength" : 7920,
            "byteOffset" : 8820
        },
        {
            "buffer" : 0,
            "byteLength" : 5280,
            "byteOffset" : 16740
        },
        {
            "buffer" : 0,
            "byteLength" : 4236,
            "byteOffset" : 22020
        },
        {
            "buffer" : 0,
            "byteLength" : 5172,
            "byteOffset" : 26256
        },
        {
            "buffer" : 0,
            "byteLength" : 5172,
            "byteOffset" : 31428
        },
        {
            "buffer" : 0,
            "byteLength" : 3448,
            "byteOffset" : 36600
        },
        {
            "buffer" : 0,
            "byteLength" : 3996,
            "byteOffset" : 40048
        }
    ],
    "samplers" : [
        {
            "magFilter" : 9729,
            "minFilter" : 9986
        }
    ],
    "buffers" : [
        {
            "byteLength" : 44044,
            "uri" : "luciphone.bin"
        }
    ]
}
