{
    "asset" : {
        "generator" : "Khronos glTF Blender I/O v1.6.16",
        "version" : "2.0"
    },
    "scene" : 0,
    "scenes" : [
        {
            "name" : "Scene",
            "nodes" : [
                0
            ]
        }
    ],
    "nodes" : [
        {
            "mesh" : 0,
            "name" : "Cube",
            "translation" : [
                0.03961890935897827,
                3.931314706802368,
                -14.956700325012207
            ]
        }
    ],
    "materials" : [
        {
            "doubleSided" : true,
            "name" : "branco",
            "pbrMetallicRoughness" : {
                "baseColorFactor" : [
                    0.800000011920929,
                    0.800000011920929,
                    0.800000011920929,
                    1
                ],
                "metallicFactor" : 0,
                "roughnessFactor" : 0.5
            }
        },
        {
            "doubleSided" : true,
            "name" : "tijolo",
            "pbrMetallicRoughness" : {
                "baseColorFactor" : [
                    0.6981925964355469,
                    0.04005751386284828,
                    0.008428724482655525,
                    1
                ],
                "metallicFactor" : 0,
                "roughnessFactor" : 0.5090909004211426
            }
        },
        {
            "doubleSided" : true,
            "name" : "rua1",
            "pbrMetallicRoughness" : {
                "baseColorFactor" : [
                    0.22025719285011292,
                    0.22025719285011292,
                    0.22025719285011292,
                    1
                ],
                "metallicFactor" : 0,
                "roughnessFactor" : 0.5
            }
        },
        {
            "doubleSided" : true,
            "name" : "rua2",
            "pbrMetallicRoughness" : {
                "baseColorFactor" : [
                    0.30319780111312866,
                    0.30319780111312866,
                    0.30319780111312866,
                    1
                ],
                "metallicFactor" : 0,
                "roughnessFactor" : 0.5
            }
        },
        {
            "doubleSided" : true,
            "name" : "Material.001",
            "pbrMetallicRoughness" : {
                "baseColorFactor" : [
                    0.8000000715255737,
                    0.6190021634101868,
                    0.14627456665039062,
                    1
                ],
                "metallicFactor" : 0,
                "roughnessFactor" : 0.5
            }
        },
        {
            "doubleSided" : true,
            "name" : "Material.002",
            "pbrMetallicRoughness" : {
                "baseColorFactor" : [
                    0.17335499823093414,
                    0.17335499823093414,
                    0.17335499823093414,
                    1
                ],
                "metallicFactor" : 0,
                "roughnessFactor" : 0.5
            }
        },
        {
            "doubleSided" : true,
            "name" : "Material.003",
            "pbrMetallicRoughness" : {
                "baseColorFactor" : [
                    0.06680644303560257,
                    0.06680644303560257,
                    0.06680644303560257,
                    1
                ],
                "metallicFactor" : 0.6323529481887817,
                "roughnessFactor" : 0.19117647409439087
            }
        },
        {
            "doubleSided" : true,
            "name" : "madeira",
            "pbrMetallicRoughness" : {
                "baseColorFactor" : [
                    0.15743358433246613,
                    0.06439247727394104,
                    0.05703742802143097,
                    1
                ],
                "metallicFactor" : 0,
                "roughnessFactor" : 0.5
            }
        },
        {
            "doubleSided" : true,
            "name" : "vidro",
            "pbrMetallicRoughness" : {
                "baseColorFactor" : [
                    0.800000011920929,
                    0.800000011920929,
                    0.800000011920929,
                    1
                ],
                "metallicFactor" : 0,
                "roughnessFactor" : 0.5
            }
        },
        {
            "doubleSided" : true,
            "emissiveFactor" : [
                1,
                0.9340179100763635,
                0.12973537267225055
            ],
            "name" : "LUZ",
            "pbrMetallicRoughness" : {}
        }
    ],
    "meshes" : [
        {
            "name" : "Cube.005",
            "primitives" : [
                {
                    "attributes" : {
                        "POSITION" : 0,
                        "NORMAL" : 1,
                        "TEXCOORD_0" : 2
                    },
                    "indices" : 3,
                    "material" : 0
                },
                {
                    "attributes" : {
                        "POSITION" : 4,
                        "NORMAL" : 5,
                        "TEXCOORD_0" : 6
                    },
                    "indices" : 7,
                    "material" : 1
                },
                {
                    "attributes" : {
                        "POSITION" : 8,
                        "NORMAL" : 9,
                        "TEXCOORD_0" : 10
                    },
                    "indices" : 11,
                    "material" : 2
                },
                {
                    "attributes" : {
                        "POSITION" : 12,
                        "NORMAL" : 13,
                        "TEXCOORD_0" : 14
                    },
                    "indices" : 15,
                    "material" : 3
                },
                {
                    "attributes" : {
                        "POSITION" : 16,
                        "NORMAL" : 17,
                        "TEXCOORD_0" : 18
                    },
                    "indices" : 19,
                    "material" : 4
                },
                {
                    "attributes" : {
                        "POSITION" : 20,
                        "NORMAL" : 21,
                        "TEXCOORD_0" : 22
                    },
                    "indices" : 23,
                    "material" : 5
                },
                {
                    "attributes" : {
                        "POSITION" : 24,
                        "NORMAL" : 25,
                        "TEXCOORD_0" : 26
                    },
                    "indices" : 27,
                    "material" : 6
                },
                {
                    "attributes" : {
                        "POSITION" : 28,
                        "NORMAL" : 29,
                        "TEXCOORD_0" : 30
                    },
                    "indices" : 31,
                    "material" : 7
                },
                {
                    "attributes" : {
                        "POSITION" : 32,
                        "NORMAL" : 33,
                        "TEXCOORD_0" : 34
                    },
                    "indices" : 35,
                    "material" : 8
                },
                {
                    "attributes" : {
                        "POSITION" : 36,
                        "NORMAL" : 37,
                        "TEXCOORD_0" : 38
                    },
                    "indices" : 39,
                    "material" : 9
                }
            ]
        }
    ],
    "accessors" : [
        {
            "bufferView" : 0,
            "componentType" : 5126,
            "count" : 1408,
            "max" : [
                3.7426810264587402,
                8.006658554077148,
                2.9487762451171875
            ],
            "min" : [
                -3.021146059036255,
                -3.5019872188568115,
                -3.014277458190918
            ],
            "type" : "VEC3"
        },
        {
            "bufferView" : 1,
            "componentType" : 5126,
            "count" : 1408,
            "type" : "VEC3"
        },
        {
            "bufferView" : 2,
            "componentType" : 5126,
            "count" : 1408,
            "type" : "VEC2"
        },
        {
            "bufferView" : 3,
            "componentType" : 5123,
            "count" : 2130,
            "type" : "SCALAR"
        },
        {
            "bufferView" : 4,
            "componentType" : 5126,
            "count" : 1662,
            "max" : [
                2.6065733432769775,
                7.4109954833984375,
                3.5133886337280273
            ],
            "min" : [
                -2.6858112812042236,
                -3.5019872188568115,
                -2.6789426803588867
            ],
            "type" : "VEC3"
        },
        {
            "bufferView" : 5,
            "componentType" : 5126,
            "count" : 1662,
            "type" : "VEC3"
        },
        {
            "bufferView" : 6,
            "componentType" : 5126,
            "count" : 1662,
            "type" : "VEC2"
        },
        {
            "bufferView" : 7,
            "componentType" : 5123,
            "count" : 2562,
            "type" : "SCALAR"
        },
        {
            "bufferView" : 8,
            "componentType" : 5126,
            "count" : 55,
            "max" : [
                4.866415500640869,
                -3.547816038131714,
                4.483475685119629
            ],
            "min" : [
                -6.765992164611816,
                -3.9004838466644287,
                -6.759125709533691
            ],
            "type" : "VEC3"
        },
        {
            "bufferView" : 9,
            "componentType" : 5126,
            "count" : 55,
            "type" : "VEC3"
        },
        {
            "bufferView" : 10,
            "componentType" : 5126,
            "count" : 55,
            "type" : "VEC2"
        },
        {
            "bufferView" : 11,
            "componentType" : 5123,
            "count" : 114,
            "type" : "SCALAR"
        },
        {
            "bufferView" : 12,
            "componentType" : 5126,
            "count" : 198,
            "max" : [
                6.68675422668457,
                -3.9004838466644287,
                6.6936235427856445
            ],
            "min" : [
                -6.765992164611816,
                -3.9004838466644287,
                -6.759125709533691
            ],
            "type" : "VEC3"
        },
        {
            "bufferView" : 13,
            "componentType" : 5126,
            "count" : 198,
            "type" : "VEC3"
        },
        {
            "bufferView" : 14,
            "componentType" : 5126,
            "count" : 198,
            "type" : "VEC2"
        },
        {
            "bufferView" : 15,
            "componentType" : 5123,
            "count" : 387,
            "type" : "SCALAR"
        },
        {
            "bufferView" : 16,
            "componentType" : 5126,
            "count" : 20,
            "max" : [
                5.954233169555664,
                -3.9004838466644287,
                5.803184509277344
            ],
            "min" : [
                -6.765992164611816,
                -3.9004838466644287,
                -6.759125709533691
            ],
            "type" : "VEC3"
        },
        {
            "bufferView" : 17,
            "componentType" : 5126,
            "count" : 20,
            "type" : "VEC3"
        },
        {
            "bufferView" : 18,
            "componentType" : 5126,
            "count" : 20,
            "type" : "VEC2"
        },
        {
            "bufferView" : 19,
            "componentType" : 5123,
            "count" : 30,
            "type" : "SCALAR"
        },
        {
            "bufferView" : 20,
            "componentType" : 5126,
            "count" : 6146,
            "max" : [
                3.579458713531494,
                6.821469306945801,
                3.619352340698242
            ],
            "min" : [
                -3.0038700103759766,
                -0.31534814834594727,
                -2.9373159408569336
            ],
            "type" : "VEC3"
        },
        {
            "bufferView" : 21,
            "componentType" : 5126,
            "count" : 6146,
            "type" : "VEC3"
        },
        {
            "bufferView" : 22,
            "componentType" : 5126,
            "count" : 6146,
            "type" : "VEC2"
        },
        {
            "bufferView" : 23,
            "componentType" : 5123,
            "count" : 10296,
            "type" : "SCALAR"
        },
        {
            "bufferView" : 24,
            "componentType" : 5126,
            "count" : 152,
            "max" : [
                2.4797680377960205,
                4.4434614181518555,
                3.544160842895508
            ],
            "min" : [
                -0.93070387840271,
                4.404574394226074,
                2.573061943054199
            ],
            "type" : "VEC3"
        },
        {
            "bufferView" : 25,
            "componentType" : 5126,
            "count" : 152,
            "type" : "VEC3"
        },
        {
            "bufferView" : 26,
            "componentType" : 5126,
            "count" : 152,
            "type" : "VEC2"
        },
        {
            "bufferView" : 27,
            "componentType" : 5123,
            "count" : 228,
            "type" : "SCALAR"
        },
        {
            "bufferView" : 28,
            "componentType" : 5126,
            "count" : 2080,
            "max" : [
                2.5862984657287598,
                6.4770660400390625,
                2.609992027282715
            ],
            "min" : [
                -2.6829025745391846,
                -1.9072344303131104,
                -2.6838483810424805
            ],
            "type" : "VEC3"
        },
        {
            "bufferView" : 29,
            "componentType" : 5126,
            "count" : 2080,
            "type" : "VEC3"
        },
        {
            "bufferView" : 30,
            "componentType" : 5126,
            "count" : 2080,
            "type" : "VEC2"
        },
        {
            "bufferView" : 31,
            "componentType" : 5123,
            "count" : 3360,
            "type" : "SCALAR"
        },
        {
            "bufferView" : 32,
            "componentType" : 5126,
            "count" : 1218,
            "max" : [
                2.9209866523742676,
                6.379777908325195,
                2.9446802139282227
            ],
            "min" : [
                -3.0175907611846924,
                -2.074148416519165,
                -3.0185365676879883
            ],
            "type" : "VEC3"
        },
        {
            "bufferView" : 33,
            "componentType" : 5126,
            "count" : 1218,
            "type" : "VEC3"
        },
        {
            "bufferView" : 34,
            "componentType" : 5126,
            "count" : 1218,
            "type" : "VEC2"
        },
        {
            "bufferView" : 35,
            "componentType" : 5123,
            "count" : 2040,
            "type" : "SCALAR"
        },
        {
            "bufferView" : 36,
            "componentType" : 5126,
            "count" : 40,
            "max" : [
                2.478787660598755,
                6.367055892944336,
                2.5024805068969727
            ],
            "min" : [
                -0.514633297920227,
                -1.8052809238433838,
                -2.256392478942871
            ],
            "type" : "VEC3"
        },
        {
            "bufferView" : 37,
            "componentType" : 5126,
            "count" : 40,
            "type" : "VEC3"
        },
        {
            "bufferView" : 38,
            "componentType" : 5126,
            "count" : 40,
            "type" : "VEC2"
        },
        {
            "bufferView" : 39,
            "componentType" : 5123,
            "count" : 60,
            "type" : "SCALAR"
        }
    ],
    "bufferViews" : [
        {
            "buffer" : 0,
            "byteLength" : 16896,
            "byteOffset" : 0
        },
        {
            "buffer" : 0,
            "byteLength" : 16896,
            "byteOffset" : 16896
        },
        {
            "buffer" : 0,
            "byteLength" : 11264,
            "byteOffset" : 33792
        },
        {
            "buffer" : 0,
            "byteLength" : 4260,
            "byteOffset" : 45056
        },
        {
            "buffer" : 0,
            "byteLength" : 19944,
            "byteOffset" : 49316
        },
        {
            "buffer" : 0,
            "byteLength" : 19944,
            "byteOffset" : 69260
        },
        {
            "buffer" : 0,
            "byteLength" : 13296,
            "byteOffset" : 89204
        },
        {
            "buffer" : 0,
            "byteLength" : 5124,
            "byteOffset" : 102500
        },
        {
            "buffer" : 0,
            "byteLength" : 660,
            "byteOffset" : 107624
        },
        {
            "buffer" : 0,
            "byteLength" : 660,
            "byteOffset" : 108284
        },
        {
            "buffer" : 0,
            "byteLength" : 440,
            "byteOffset" : 108944
        },
        {
            "buffer" : 0,
            "byteLength" : 228,
            "byteOffset" : 109384
        },
        {
            "buffer" : 0,
            "byteLength" : 2376,
            "byteOffset" : 109612
        },
        {
            "buffer" : 0,
            "byteLength" : 2376,
            "byteOffset" : 111988
        },
        {
            "buffer" : 0,
            "byteLength" : 1584,
            "byteOffset" : 114364
        },
        {
            "buffer" : 0,
            "byteLength" : 774,
            "byteOffset" : 115948
        },
        {
            "buffer" : 0,
            "byteLength" : 240,
            "byteOffset" : 116724
        },
        {
            "buffer" : 0,
            "byteLength" : 240,
            "byteOffset" : 116964
        },
        {
            "buffer" : 0,
            "byteLength" : 160,
            "byteOffset" : 117204
        },
        {
            "buffer" : 0,
            "byteLength" : 60,
            "byteOffset" : 117364
        },
        {
            "buffer" : 0,
            "byteLength" : 73752,
            "byteOffset" : 117424
        },
        {
            "buffer" : 0,
            "byteLength" : 73752,
            "byteOffset" : 191176
        },
        {
            "buffer" : 0,
            "byteLength" : 49168,
            "byteOffset" : 264928
        },
        {
            "buffer" : 0,
            "byteLength" : 20592,
            "byteOffset" : 314096
        },
        {
            "buffer" : 0,
            "byteLength" : 1824,
            "byteOffset" : 334688
        },
        {
            "buffer" : 0,
            "byteLength" : 1824,
            "byteOffset" : 336512
        },
        {
            "buffer" : 0,
            "byteLength" : 1216,
            "byteOffset" : 338336
        },
        {
            "buffer" : 0,
            "byteLength" : 456,
            "byteOffset" : 339552
        },
        {
            "buffer" : 0,
            "byteLength" : 24960,
            "byteOffset" : 340008
        },
        {
            "buffer" : 0,
            "byteLength" : 24960,
            "byteOffset" : 364968
        },
        {
            "buffer" : 0,
            "byteLength" : 16640,
            "byteOffset" : 389928
        },
        {
            "buffer" : 0,
            "byteLength" : 6720,
            "byteOffset" : 406568
        },
        {
            "buffer" : 0,
            "byteLength" : 14616,
            "byteOffset" : 413288
        },
        {
            "buffer" : 0,
            "byteLength" : 14616,
            "byteOffset" : 427904
        },
        {
            "buffer" : 0,
            "byteLength" : 9744,
            "byteOffset" : 442520
        },
        {
            "buffer" : 0,
            "byteLength" : 4080,
            "byteOffset" : 452264
        },
        {
            "buffer" : 0,
            "byteLength" : 480,
            "byteOffset" : 456344
        },
        {
            "buffer" : 0,
            "byteLength" : 480,
            "byteOffset" : 456824
        },
        {
            "buffer" : 0,
            "byteLength" : 320,
            "byteOffset" : 457304
        },
        {
            "buffer" : 0,
            "byteLength" : 120,
            "byteOffset" : 457624
        }
    ],
    "buffers" : [
        {
            "byteLength" : 457744,
            "uri" : "predioexport.bin"
        }
    ]
}
