{
    "asset" : {
        "generator" : "Khronos glTF Blender I/O v1.4.40",
        "version" : "2.0"
    },
    "scene" : 0,
    "scenes" : [
        {
            "name" : "Scene",
            "nodes" : [
                0
            ]
        }
    ],
    "nodes" : [
        {
            "mesh" : 0,
            "name" : "Cube",
            "scale" : [
                7.158726215362549,
                0.15076690912246704,
                7.158726215362549
            ],
            "translation" : [
                0.09058398008346558,
                3.7300567626953125,
                0
            ]
        }
    ],
    "materials" : [
        {
            "doubleSided" : true,
            "name" : "Material.004",
            "pbrMetallicRoughness" : {
                "baseColorFactor" : [
                    1,
                    0.17680364847183228,
                    0.24913331866264343,
                    1
                ],
                "metallicFactor" : 0,
                "roughnessFactor" : 0.5
            }
        },
        {
            "doubleSided" : true,
            "name" : "Material",
            "pbrMetallicRoughness" : {
                "baseColorFactor" : [
                    1,
                    0.6564543843269348,
                    0.9061874151229858,
                    1
                ],
                "metallicFactor" : 0,
                "roughnessFactor" : 0.5
            }
        },
        {
            "doubleSided" : true,
            "name" : "Material.001",
            "pbrMetallicRoughness" : {
                "baseColorFactor" : [
                    0.8000000715255737,
                    0.08287427574396133,
                    0.007783728651702404,
                    1
                ],
                "metallicFactor" : 0,
                "roughnessFactor" : 0.5
            }
        },
        {
            "doubleSided" : true,
            "name" : "Material.002",
            "pbrMetallicRoughness" : {
                "baseColorFactor" : [
                    0.03376723453402519,
                    0.7332814931869507,
                    1,
                    1
                ],
                "metallicFactor" : 0,
                "roughnessFactor" : 0.5
            }
        },
        {
            "doubleSided" : true,
            "name" : "Material.003",
            "pbrMetallicRoughness" : {
                "baseColorFactor" : [
                    0.4074161946773529,
                    1,
                    0.26950204372406006,
                    1
                ],
                "metallicFactor" : 0,
                "roughnessFactor" : 0.5
            }
        },
        {
            "doubleSided" : true,
            "name" : "Material.005",
            "pbrMetallicRoughness" : {
                "baseColorFactor" : [
                    0.05764876306056976,
                    0.5486265420913696,
                    1,
                    1
                ],
                "metallicFactor" : 0,
                "roughnessFactor" : 0.331818163394928
            }
        },
        {
            "doubleSided" : true,
            "name" : "Material.006",
            "pbrMetallicRoughness" : {
                "baseColorFactor" : [
                    0.8412030339241028,
                    0.6954177618026733,
                    0,
                    1
                ],
                "metallicFactor" : 0,
                "roughnessFactor" : 0.5
            }
        }
    ],
    "meshes" : [
        {
            "name" : "Cube.007",
            "primitives" : [
                {
                    "attributes" : {
                        "POSITION" : 0,
                        "NORMAL" : 1,
                        "TEXCOORD_0" : 2
                    },
                    "indices" : 3,
                    "material" : 0
                },
                {
                    "attributes" : {
                        "POSITION" : 4,
                        "NORMAL" : 5,
                        "TEXCOORD_0" : 6
                    },
                    "indices" : 7,
                    "material" : 1
                },
                {
                    "attributes" : {
                        "POSITION" : 8,
                        "NORMAL" : 9,
                        "TEXCOORD_0" : 10
                    },
                    "indices" : 11,
                    "material" : 2
                },
                {
                    "attributes" : {
                        "POSITION" : 12,
                        "NORMAL" : 13,
                        "TEXCOORD_0" : 14
                    },
                    "indices" : 15,
                    "material" : 3
                },
                {
                    "attributes" : {
                        "POSITION" : 16,
                        "NORMAL" : 17,
                        "TEXCOORD_0" : 18
                    },
                    "indices" : 19,
                    "material" : 4
                },
                {
                    "attributes" : {
                        "POSITION" : 20,
                        "NORMAL" : 21,
                        "TEXCOORD_0" : 22
                    },
                    "indices" : 23,
                    "material" : 5
                },
                {
                    "attributes" : {
                        "POSITION" : 24,
                        "NORMAL" : 25,
                        "TEXCOORD_0" : 26
                    },
                    "indices" : 27,
                    "material" : 6
                }
            ]
        }
    ],
    "accessors" : [
        {
            "bufferView" : 0,
            "componentType" : 5126,
            "count" : 24,
            "max" : [
                1,
                1,
                1
            ],
            "min" : [
                -1,
                -1,
                -1
            ],
            "type" : "VEC3"
        },
        {
            "bufferView" : 1,
            "componentType" : 5126,
            "count" : 24,
            "type" : "VEC3"
        },
        {
            "bufferView" : 2,
            "componentType" : 5126,
            "count" : 24,
            "type" : "VEC2"
        },
        {
            "bufferView" : 3,
            "componentType" : 5123,
            "count" : 36,
            "type" : "SCALAR"
        },
        {
            "bufferView" : 4,
            "componentType" : 5126,
            "count" : 48,
            "max" : [
                0.9999997615814209,
                46.10529327392578,
                1
            ],
            "min" : [
                -1.0142019987106323,
                -1.0094157457351685,
                -1
            ],
            "type" : "VEC3"
        },
        {
            "bufferView" : 5,
            "componentType" : 5126,
            "count" : 48,
            "type" : "VEC3"
        },
        {
            "bufferView" : 6,
            "componentType" : 5126,
            "count" : 48,
            "type" : "VEC2"
        },
        {
            "bufferView" : 7,
            "componentType" : 5123,
            "count" : 72,
            "type" : "SCALAR"
        },
        {
            "bufferView" : 8,
            "componentType" : 5126,
            "count" : 4,
            "max" : [
                0.2410646229982376,
                35.310237884521484,
                -0.9606810212135315
            ],
            "min" : [
                -0.008785411715507507,
                21.537633895874023,
                -0.9606810212135315
            ],
            "type" : "VEC3"
        },
        {
            "bufferView" : 9,
            "componentType" : 5126,
            "count" : 4,
            "type" : "VEC3"
        },
        {
            "bufferView" : 10,
            "componentType" : 5126,
            "count" : 4,
            "type" : "VEC2"
        },
        {
            "bufferView" : 11,
            "componentType" : 5123,
            "count" : 6,
            "type" : "SCALAR"
        },
        {
            "bufferView" : 12,
            "componentType" : 5126,
            "count" : 48,
            "max" : [
                0.26260942220687866,
                36.497859954833984,
                -0.9551980495452881
            ],
            "min" : [
                -0.030330196022987366,
                20.35000991821289,
                -0.9818605184555054
            ],
            "type" : "VEC3"
        },
        {
            "bufferView" : 13,
            "componentType" : 5126,
            "count" : 48,
            "type" : "VEC3"
        },
        {
            "bufferView" : 14,
            "componentType" : 5126,
            "count" : 48,
            "type" : "VEC2"
        },
        {
            "bufferView" : 15,
            "componentType" : 5123,
            "count" : 78,
            "type" : "SCALAR"
        },
        {
            "bufferView" : 16,
            "componentType" : 5126,
            "count" : 72,
            "max" : [
                -0.7266610860824585,
                12.337486267089844,
                0.2975195050239563
            ],
            "min" : [
                -0.990546464920044,
                -0.35208988189697266,
                -0.6909711956977844
            ],
            "type" : "VEC3"
        },
        {
            "bufferView" : 17,
            "componentType" : 5126,
            "count" : 72,
            "type" : "VEC3"
        },
        {
            "bufferView" : 18,
            "componentType" : 5126,
            "count" : 72,
            "type" : "VEC2"
        },
        {
            "bufferView" : 19,
            "componentType" : 5123,
            "count" : 108,
            "type" : "SCALAR"
        },
        {
            "bufferView" : 20,
            "componentType" : 5126,
            "count" : 729,
            "max" : [
                0.34323716163635254,
                8.641361236572266,
                0.396714985370636
            ],
            "min" : [
                -0.1159379854798317,
                1.0055313110351562,
                -0.07266998291015625
            ],
            "type" : "VEC3"
        },
        {
            "bufferView" : 21,
            "componentType" : 5126,
            "count" : 729,
            "type" : "VEC3"
        },
        {
            "bufferView" : 22,
            "componentType" : 5126,
            "count" : 729,
            "type" : "VEC2"
        },
        {
            "bufferView" : 23,
            "componentType" : 5123,
            "count" : 3840,
            "type" : "SCALAR"
        },
        {
            "bufferView" : 24,
            "componentType" : 5126,
            "count" : 1911,
            "max" : [
                0.4656308889389038,
                30.834396362304688,
                0.641156792640686
            ],
            "min" : [
                -1.0844228267669678,
                -3.5610785484313965,
                -1.0784327983856201
            ],
            "type" : "VEC3"
        },
        {
            "bufferView" : 25,
            "componentType" : 5126,
            "count" : 1911,
            "type" : "VEC3"
        },
        {
            "bufferView" : 26,
            "componentType" : 5126,
            "count" : 1911,
            "type" : "VEC2"
        },
        {
            "bufferView" : 27,
            "componentType" : 5123,
            "count" : 10368,
            "type" : "SCALAR"
        }
    ],
    "bufferViews" : [
        {
            "buffer" : 0,
            "byteLength" : 288,
            "byteOffset" : 0
        },
        {
            "buffer" : 0,
            "byteLength" : 288,
            "byteOffset" : 288
        },
        {
            "buffer" : 0,
            "byteLength" : 192,
            "byteOffset" : 576
        },
        {
            "buffer" : 0,
            "byteLength" : 72,
            "byteOffset" : 768
        },
        {
            "buffer" : 0,
            "byteLength" : 576,
            "byteOffset" : 840
        },
        {
            "buffer" : 0,
            "byteLength" : 576,
            "byteOffset" : 1416
        },
        {
            "buffer" : 0,
            "byteLength" : 384,
            "byteOffset" : 1992
        },
        {
            "buffer" : 0,
            "byteLength" : 144,
            "byteOffset" : 2376
        },
        {
            "buffer" : 0,
            "byteLength" : 48,
            "byteOffset" : 2520
        },
        {
            "buffer" : 0,
            "byteLength" : 48,
            "byteOffset" : 2568
        },
        {
            "buffer" : 0,
            "byteLength" : 32,
            "byteOffset" : 2616
        },
        {
            "buffer" : 0,
            "byteLength" : 12,
            "byteOffset" : 2648
        },
        {
            "buffer" : 0,
            "byteLength" : 576,
            "byteOffset" : 2660
        },
        {
            "buffer" : 0,
            "byteLength" : 576,
            "byteOffset" : 3236
        },
        {
            "buffer" : 0,
            "byteLength" : 384,
            "byteOffset" : 3812
        },
        {
            "buffer" : 0,
            "byteLength" : 156,
            "byteOffset" : 4196
        },
        {
            "buffer" : 0,
            "byteLength" : 864,
            "byteOffset" : 4352
        },
        {
            "buffer" : 0,
            "byteLength" : 864,
            "byteOffset" : 5216
        },
        {
            "buffer" : 0,
            "byteLength" : 576,
            "byteOffset" : 6080
        },
        {
            "buffer" : 0,
            "byteLength" : 216,
            "byteOffset" : 6656
        },
        {
            "buffer" : 0,
            "byteLength" : 8748,
            "byteOffset" : 6872
        },
        {
            "buffer" : 0,
            "byteLength" : 8748,
            "byteOffset" : 15620
        },
        {
            "buffer" : 0,
            "byteLength" : 5832,
            "byteOffset" : 24368
        },
        {
            "buffer" : 0,
            "byteLength" : 7680,
            "byteOffset" : 30200
        },
        {
            "buffer" : 0,
            "byteLength" : 22932,
            "byteOffset" : 37880
        },
        {
            "buffer" : 0,
            "byteLength" : 22932,
            "byteOffset" : 60812
        },
        {
            "buffer" : 0,
            "byteLength" : 15288,
            "byteOffset" : 83744
        },
        {
            "buffer" : 0,
            "byteLength" : 20736,
            "byteOffset" : 99032
        }
    ],
    "buffers" : [
        {
            "byteLength" : 119768,
            "uri" : "rom.bin"
        }
    ]
}
